<?xml version="1.0" encoding="utf-8"?>
<!-- Generator: Adobe Illustrator 18.0.0, SVG Export Plug-In . SVG Version: 6.00 Build 0)  -->
<!DOCTYPE svg PUBLIC "-//W3C//DTD SVG 1.1//EN" "http://www.w3.org/Graphics/SVG/1.1/DTD/svg11.dtd">
<svg version="1.1" id="Layer_1" xmlns="http://www.w3.org/2000/svg" xmlns:xlink="http://www.w3.org/1999/xlink" x="0px" y="0px"
	 viewBox="0 0 263.2 331.5" enable-background="new 0 0 263.2 331.5" xml:space="preserve">
<g>
	<path fill="none" stroke="#000000" stroke-miterlimit="10" d="M125.6,309.9c0,0-1.3-0.9-3.7-2.6c-1.2-0.8-2.6-2-4.3-3.2
		c-1.7-1.3-3.6-2.8-5.7-4.5c-4.2-3.5-9.1-7.8-14.3-13.2c-5.2-5.3-10.7-11.7-15.9-19c-5.1-7.4-10.1-15.7-13.8-24.9
		c-3.8-9.1-6.4-19.2-7.2-29.3c-0.4-5.1-0.3-10.2,0.3-15.2c0.6-5,1.8-9.9,3.4-14.6c3.3-9.4,8.8-17.8,15.8-25
		c3.5-3.6,7.4-6.9,11.5-9.8c4.2-3,8.7-5.6,13.3-7.9c9.3-4.7,19.3-8.1,29.3-10.7c10-2.6,20.2-4.1,29.9-5.1c9.8-1,19.1-1.4,27.9-1.3
		c17.4,0,32.2,1.4,42.5,2.6c2.6,0.3,4.9,0.6,6.9,0.8c2,0.3,3.7,0.5,5.1,0.7c2.8,0.4,4.2,0.6,4.2,0.6"/>
	<path fill="none" stroke="#000000" stroke-miterlimit="10" d="M124.1,312.4c0,0-1.3-0.9-3.8-2.5c-1.3-0.8-2.7-1.9-4.5-3.1
		c-1.8-1.2-3.8-2.7-6-4.3c-4.4-3.3-9.6-7.5-15.2-12.7c-5.6-5.2-11.5-11.4-17.2-18.8c-5.7-7.4-11.2-15.8-15.7-25.3
		c-4.5-9.5-7.9-20-9.3-31.1c-0.7-5.5-0.9-11.2-0.6-16.8c0.4-5.6,1.3-11.3,2.9-16.7c3.1-10.9,8.8-21.2,16.4-29.9
		c3.8-4.4,8-8.4,12.5-12c4.5-3.6,9.4-6.8,14.4-9.8c10-5.8,20.8-10.1,31.5-13.5c10.7-3.3,21.5-5.5,31.8-7.1
		c10.3-1.5,20.2-2.4,29.4-2.9c9.2-0.4,17.6-0.5,25.1-0.3c1.9,0,3.7,0.1,5.4,0.1c1.8,0.1,3.4,0.2,5.1,0.2c3.2,0.1,6.2,0.3,8.9,0.5
		c2.7,0.2,5.1,0.4,7.2,0.5c2.1,0.2,3.9,0.4,5.3,0.5c2.9,0.3,4.4,0.4,4.4,0.4"/>
	<path fill="none" stroke="#000000" stroke-miterlimit="10" d="M129.3,303.5c0,0-1.1-1-3.3-2.9c-1.1-0.9-2.3-2.2-3.8-3.6
		c-1.5-1.4-3.2-3.1-5-4.9c-3.6-3.8-7.9-8.4-12.2-14.1c-4.3-5.6-8.8-12.1-12.7-19.4c-3.9-7.3-7.3-15.4-9.4-23.8c-2.2-8.4-3-17-2.2-25
		c0.4-4,1.2-7.8,2.4-11.2c1.2-3.5,2.7-6.7,4.6-9.5c3.7-5.7,8.5-10.1,14.2-13.6c11.3-7.2,27.2-11.3,44.1-12.7
		c8.4-0.8,17.1-0.8,25.5-0.4c8.4,0.4,16.6,1.2,24.3,2.2c7.7,1.1,14.8,2.3,21.1,3.6c1.6,0.3,3.1,0.6,4.6,0.9c1.5,0.3,2.9,0.7,4.3,1
		c2.8,0.6,5.3,1.2,7.6,1.8c2.3,0.6,4.3,1.1,6.1,1.5c1.8,0.5,3.3,0.9,4.6,1.2c2.5,0.7,3.8,1,3.8,1"/>
	<path fill="none" stroke="#000000" stroke-miterlimit="10" d="M127.8,306c0,0-1.2-0.9-3.5-2.7c-1.1-0.9-2.5-2-4.1-3.4
		c-1.6-1.3-3.4-2.9-5.3-4.7c-3.9-3.6-8.5-8-13.3-13.5c-4.8-5.4-9.8-11.8-14.4-19c-4.5-7.3-8.8-15.4-11.8-24.2
		c-3.1-8.7-4.8-18-4.9-27.1c0-4.5,0.4-9,1.2-13.2c0.9-4.3,2.2-8.3,3.9-12.1c3.4-7.6,8.5-14.1,14.9-19.6c3.2-2.8,6.7-5.2,10.4-7.5
		c3.8-2.2,7.8-4.2,12-6c8.4-3.5,17.6-6,26.8-7.8c9.3-1.8,18.7-2.6,27.9-3c9.1-0.4,17.9-0.3,26.2,0.2c8.2,0.5,15.8,1.2,22.6,2
		c1.7,0.2,3.3,0.4,4.9,0.6c1.6,0.2,3.1,0.5,4.6,0.7c2.9,0.4,5.6,0.8,8.1,1.3c2.4,0.4,4.6,0.8,6.5,1.1c1.9,0.4,3.5,0.7,4.8,0.9
		c2.6,0.5,4,0.8,4,0.8"/>
	<path fill="none" stroke="#000000" stroke-miterlimit="10" d="M120.4,318.8c0,0-1.5-0.7-4.2-2.1c-1.4-0.7-3-1.6-5-2.6
		c-2-1-4.2-2.3-6.7-3.8c-5-3-11-6.7-17.5-11.6c-6.5-4.9-13.7-10.8-20.8-18.2c-7.1-7.4-14.3-16-20.6-26.4
		c-6.3-10.3-11.8-22.3-15-35.8c-1.6-6.7-2.7-13.8-3-21.2c-0.3-7.3,0.2-14.9,1.5-22.4c1.3-7.5,3.6-15,6.6-22.2
		c3-7.2,6.9-14.1,11.3-20.5c4.4-6.4,9.5-12.3,14.9-17.7c5.4-5.4,11.3-10.2,17.2-14.6c12-8.8,24.7-15.5,37.2-20.9
		c12.5-5.4,25-9.4,36.8-12.5c11.8-3.1,23.1-5.4,33.4-7c10.4-1.6,19.9-2.8,28.3-3.5c2.1-0.2,4.1-0.4,6.1-0.5c2-0.1,3.9-0.3,5.7-0.4
		c3.6-0.2,7-0.5,10-0.6c3-0.1,5.7-0.2,8-0.3c2.3,0,4.3-0.1,5.9-0.1c3.2-0.1,4.9-0.1,4.9-0.1"/>
	<path fill="none" stroke="#000000" stroke-miterlimit="10" d="M121.9,316.2c0,0-1.4-0.8-4.1-2.2c-1.3-0.7-2.9-1.7-4.8-2.8
		c-1.9-1.1-4-2.5-6.4-4c-4.7-3.1-10.5-7-16.6-12c-6.2-5-12.9-11-19.5-18.4c-6.6-7.4-13.2-15.9-18.7-25.9c-5.6-10-10.3-21.4-12.9-34
		c-1.3-6.3-2-12.8-2.1-19.5c0-6.7,0.6-13.5,2.1-20.2c2.8-13.5,8.9-26.6,17.3-37.9c4.2-5.6,8.9-10.8,14-15.6
		c5.1-4.7,10.5-8.9,16.1-12.8c11.2-7.7,23.2-13.5,35.1-18.1c11.9-4.7,23.6-7.9,34.9-10.5c11.3-2.5,22-4.3,31.9-5.4
		c9.9-1.2,19-1.9,27.1-2.3c2-0.1,4-0.2,5.9-0.3c1.9-0.1,3.7-0.1,5.4-0.2c3.5-0.1,6.7-0.2,9.6-0.2c2.9,0,5.5,0,7.7,0
		c2.2,0,4.1,0.1,5.7,0.1c3.1,0.1,4.7,0.1,4.7,0.1"/>
	<path fill="none" stroke="#000000" stroke-miterlimit="10" d="M116.7,325.1c0,0-1.6-0.6-4.6-1.8c-1.5-0.6-3.3-1.4-5.5-2.3
		c-2.2-0.9-4.6-2.1-7.4-3.4c-5.5-2.7-12.2-6.1-19.5-10.7c-7.4-4.6-15.6-10.4-24-17.7c-8.4-7.4-17.1-16.3-25-27.5
		c-7.9-11.1-15.2-24.4-20-40.1c-2.4-7.8-4.2-16.2-5-25.1c-0.8-8.8-0.8-18.1,0.4-27.5c1.2-9.4,3.4-18.8,6.7-27.9
		c3.3-9.1,7.6-17.9,12.7-26.1c5.1-8.2,10.9-15.8,17.1-22.8c6.3-6.9,13-13.2,19.8-18.9c6.9-5.7,13.9-10.7,21.1-15.3
		c1.8-1.1,3.6-2.2,5.3-3.3c1.8-1.1,3.6-2.1,5.3-3.1c3.6-2.1,7.1-3.9,10.6-5.7c14.2-7.3,28-12.7,41.2-17.2c13.1-4.5,25.6-7.9,37-10.5
		c11.4-2.7,21.9-4.7,31.1-6.2c2.3-0.4,4.5-0.7,6.7-1.1c2.1-0.3,4.2-0.6,6.2-0.9c4-0.6,7.6-1.1,10.9-1.4c3.3-0.4,6.2-0.7,8.8-1
		c2.5-0.2,4.7-0.5,6.4-0.6c3.5-0.3,5.4-0.5,5.4-0.5"/>
	<path fill="none" stroke="#000000" stroke-miterlimit="10" d="M118.2,322.6c0,0-1.5-0.7-4.4-2c-1.5-0.6-3.2-1.5-5.3-2.5
		c-2.1-1-4.4-2.2-7-3.6C96.3,311.6,90,308,83,303.2c-6.9-4.8-14.6-10.7-22.3-18.1c-7.7-7.4-15.6-16.3-22.6-27.1
		c-7.1-10.7-13.3-23.4-17.3-38c-2-7.3-3.3-15-3.9-23.1c-0.5-8.1-0.2-16.4,1.1-24.8c1.3-8.4,3.6-16.8,6.7-24.9
		c3.2-8.1,7.3-15.9,12.1-23.1c4.8-7.3,10.2-14,16-20.1c5.8-6.1,12.1-11.6,18.5-16.6c12.9-9.9,26.4-17.6,39.7-23.8
		c13.3-6.2,26.4-10.9,38.8-14.6c12.4-3.7,24.2-6.5,35.1-8.5c10.9-2.1,20.8-3.6,29.6-4.7c2.2-0.3,4.3-0.5,6.4-0.8
		c2-0.2,4-0.4,5.9-0.6c3.8-0.4,7.3-0.7,10.4-0.9c3.1-0.2,5.9-0.4,8.4-0.6c2.4-0.1,4.5-0.2,6.2-0.3c3.4-0.2,5.1-0.3,5.1-0.3"/>
	<path fill="none" stroke="#000000" stroke-miterlimit="10" d="M123,314.3c0,0-1.4-0.8-3.9-2.4c-1.3-0.7-2.8-1.8-4.7-2.9
		c-1.8-1.1-3.9-2.6-6.2-4.2c-4.6-3.2-10-7.2-15.9-12.4c-5.9-5.1-12.2-11.2-18.3-18.6c-6.1-7.4-12.2-15.8-17.2-25.6
		c-5.1-9.7-9.1-20.7-11.1-32.5c-1-5.9-1.5-12-1.3-18.2c0.2-6.2,1-12.4,2.5-18.5c3-12.2,8.9-23.9,16.8-33.9c4-5,8.4-9.6,13.2-13.8
		c4.8-4.2,10-7.9,15.2-11.3c10.6-6.7,22-11.8,33.3-15.8c11.3-4,22.6-6.7,33.3-8.8c10.8-2,21.1-3.4,30.6-4.2
		c9.5-0.8,18.3-1.2,26.1-1.3c1.9,0,3.8-0.1,5.6-0.1c1.8,0,3.6,0,5.3,0c3.4,0,6.5,0,9.3,0.2c2.8,0.1,5.3,0.2,7.5,0.2
		c2.2,0.1,4,0.2,5.5,0.3c3,0.2,4.6,0.2,4.6,0.2"/>
</g>
</svg>
