<svg xmlns="http://www.w3.org/2000/svg" viewBox="0 0 263.2 331.5"><g fill="none" stroke="hsl(0, 0%, 88%)" stroke-miterlimit="10"><path d="M125.6 309.9s-1.3-.9-3.7-2.6c-1.2-.8-2.6-2-4.3-3.2-1.7-1.3-3.6-2.8-5.7-4.5-4.2-3.5-9.1-7.8-14.3-13.2-5.2-5.3-10.7-11.7-15.9-19-5.1-7.4-10.1-15.7-13.8-24.9-3.8-9.1-6.4-19.2-7.2-29.3-.4-5.1-.3-10.2.3-15.2s1.8-9.9 3.4-14.6c3.3-9.4 8.8-17.8 15.8-25 3.5-3.6 7.4-6.9 11.5-9.8 4.2-3 8.7-5.6 13.3-7.9 9.3-4.7 19.3-8.1 29.3-10.7 10-2.6 20.2-4.1 29.9-5.1 9.8-1 19.1-1.4 27.9-1.3 17.4 0 32.2 1.4 42.5 2.6 2.6.3 4.9.6 6.9.8 2 .3 3.7.5 5.1.7l4.2.6"/><path d="M124.1 312.4s-1.3-.9-3.8-2.5c-1.3-.8-2.7-1.9-4.5-3.1-1.8-1.2-3.8-2.7-6-4.3-4.4-3.3-9.6-7.5-15.2-12.7-5.6-5.2-11.5-11.4-17.2-18.8-5.7-7.4-11.2-15.8-15.7-25.3s-7.9-20-9.3-31.1c-.7-5.5-.9-11.2-.6-16.8.4-5.6 1.3-11.3 2.9-16.7 3.1-10.9 8.8-21.2 16.4-29.9 3.8-4.4 8-8.4 12.5-12 4.5-3.6 9.4-6.8 14.4-9.8 10-5.8 20.8-10.1 31.5-13.5 10.7-3.3 21.5-5.5 31.8-7.1 10.3-1.5 20.2-2.4 29.4-2.9 9.2-.4 17.6-.5 25.1-.3 1.9 0 3.7.1 5.4.1 1.8.1 3.4.2 5.1.2 3.2.1 6.2.3 8.9.5s5.1.4 7.2.5c2.1.2 3.9.4 5.3.5 2.9.3 4.4.4 4.4.4"/><path d="M129.3 303.5s-1.1-1-3.3-2.9c-1.1-.9-2.3-2.2-3.8-3.6s-3.2-3.1-5-4.9c-3.6-3.8-7.9-8.4-12.2-14.1-4.3-5.6-8.8-12.1-12.7-19.4-3.9-7.3-7.3-15.4-9.4-23.8-2.2-8.4-3-17-2.2-25 .4-4 1.2-7.8 2.4-11.2 1.2-3.5 2.7-6.7 4.6-9.5 3.7-5.7 8.5-10.1 14.2-13.6 11.3-7.2 27.2-11.3 44.1-12.7 8.4-.8 17.1-.8 25.5-.4 8.4.4 16.6 1.2 24.3 2.2 7.7 1.1 14.8 2.3 21.1 3.6 1.6.3 3.1.6 4.6.9 1.5.3 2.9.7 4.3 1 2.8.6 5.3 1.2 7.6 1.8 2.3.6 4.3 1.1 6.1 1.5 1.8.5 3.3.9 4.6 1.2 2.5.7 3.8 1 3.8 1"/><path d="M127.8 306s-1.2-.9-3.5-2.7c-1.1-.9-2.5-2-4.1-3.4-1.6-1.3-3.4-2.9-5.3-4.7-3.9-3.6-8.5-8-13.3-13.5-4.8-5.4-9.8-11.8-14.4-19-4.5-7.3-8.8-15.4-11.8-24.2-3.1-8.7-4.8-18-4.9-27.1 0-4.5.4-9 1.2-13.2.9-4.3 2.2-8.3 3.9-12.1 3.4-7.6 8.5-14.1 14.9-19.6 3.2-2.8 6.7-5.2 10.4-7.5 3.8-2.2 7.8-4.2 12-6 8.4-3.5 17.6-6 26.8-7.8 9.3-1.8 18.7-2.6 27.9-3 9.1-.4 17.9-.3 26.2.2 8.2.5 15.8 1.2 22.6 2 1.7.2 3.3.4 4.9.6 1.6.2 3.1.5 4.6.7 2.9.4 5.6.8 8.1 1.3 2.4.4 4.6.8 6.5 1.1 1.9.4 3.5.7 4.8.9 2.6.5 4 .8 4 .8"/><path d="M120.4 318.8s-1.5-.7-4.2-2.1c-1.4-.7-3-1.6-5-2.6s-4.2-2.3-6.7-3.8c-5-3-11-6.7-17.5-11.6-6.5-4.9-13.7-10.8-20.8-18.2-7.1-7.4-14.3-16-20.6-26.4-6.3-10.3-11.8-22.3-15-35.8-1.6-6.7-2.7-13.8-3-21.2-.3-7.3.2-14.9 1.5-22.4 1.3-7.5 3.6-15 6.6-22.2 3-7.2 6.9-14.1 11.3-20.5s9.5-12.3 14.9-17.7c5.4-5.4 11.3-10.2 17.2-14.6 12-8.8 24.7-15.5 37.2-20.9 12.5-5.4 25-9.4 36.8-12.5 11.8-3.1 23.1-5.4 33.4-7 10.4-1.6 19.9-2.8 28.3-3.5 2.1-.2 4.1-.4 6.1-.5 2-.1 3.9-.3 5.7-.4 3.6-.2 7-.5 10-.6 3-.1 5.7-.2 8-.3 2.3 0 4.3-.1 5.9-.1 3.2-.1 4.9-.1 4.9-.1"/><path d="M121.9 316.2s-1.4-.8-4.1-2.2c-1.3-.7-2.9-1.7-4.8-2.8-1.9-1.1-4-2.5-6.4-4-4.7-3.1-10.5-7-16.6-12-6.2-5-12.9-11-19.5-18.4-6.6-7.4-13.2-15.9-18.7-25.9-5.6-10-10.3-21.4-12.9-34-1.3-6.3-2-12.8-2.1-19.5 0-6.7.6-13.5 2.1-20.2 2.8-13.5 8.9-26.6 17.3-37.9 4.2-5.6 8.9-10.8 14-15.6 5.1-4.7 10.5-8.9 16.1-12.8 11.2-7.7 23.2-13.5 35.1-18.1 11.9-4.7 23.6-7.9 34.9-10.5 11.3-2.5 22-4.3 31.9-5.4 9.9-1.2 19-1.9 27.1-2.3 2-.1 4-.2 5.9-.3 1.9-.1 3.7-.1 5.4-.2 3.5-.1 6.7-.2 9.6-.2h7.7c2.2 0 4.1.1 5.7.1 3.1.1 4.7.1 4.7.1"/><path d="M116.7 325.1s-1.6-.6-4.6-1.8c-1.5-.6-3.3-1.4-5.5-2.3-2.2-.9-4.6-2.1-7.4-3.4-5.5-2.7-12.2-6.1-19.5-10.7-7.4-4.6-15.6-10.4-24-17.7-8.4-7.4-17.1-16.3-25-27.5-7.9-11.1-15.2-24.4-20-40.1-2.4-7.8-4.2-16.2-5-25.1-.8-8.8-.8-18.1.4-27.5 1.2-9.4 3.4-18.8 6.7-27.9 3.3-9.1 7.6-17.9 12.7-26.1 5.1-8.2 10.9-15.8 17.1-22.8 6.3-6.9 13-13.2 19.8-18.9 6.9-5.7 13.9-10.7 21.1-15.3 1.8-1.1 3.6-2.2 5.3-3.3 1.8-1.1 3.6-2.1 5.3-3.1 3.6-2.1 7.1-3.9 10.6-5.7 14.2-7.3 28-12.7 41.2-17.2 13.1-4.5 25.6-7.9 37-10.5 11.4-2.7 21.9-4.7 31.1-6.2 2.3-.4 4.5-.7 6.7-1.1 2.1-.3 4.2-.6 6.2-.9 4-.6 7.6-1.1 10.9-1.4 3.3-.4 6.2-.7 8.8-1 2.5-.2 4.7-.5 6.4-.6 3.5-.3 5.4-.5 5.4-.5"/><path d="M118.2 322.6s-1.5-.7-4.4-2c-1.5-.6-3.2-1.5-5.3-2.5-2.1-1-4.4-2.2-7-3.6-5.2-2.9-11.5-6.5-18.5-11.3-6.9-4.8-14.6-10.7-22.3-18.1-7.7-7.4-15.6-16.3-22.6-27.1-7.1-10.7-13.3-23.4-17.3-38-2-7.3-3.3-15-3.9-23.1-.5-8.1-.2-16.4 1.1-24.8 1.3-8.4 3.6-16.8 6.7-24.9 3.2-8.1 7.3-15.9 12.1-23.1 4.8-7.3 10.2-14 16-20.1 5.8-6.1 12.1-11.6 18.5-16.6 12.9-9.9 26.4-17.6 39.7-23.8 13.3-6.2 26.4-10.9 38.8-14.6 12.4-3.7 24.2-6.5 35.1-8.5 10.9-2.1 20.8-3.6 29.6-4.7 2.2-.3 4.3-.5 6.4-.8 2-.2 4-.4 5.9-.6 3.8-.4 7.3-.7 10.4-.9 3.1-.2 5.9-.4 8.4-.6 2.4-.1 4.5-.2 6.2-.3l5.1-.3"/><path d="M123 314.3s-1.4-.8-3.9-2.4c-1.3-.7-2.8-1.8-4.7-2.9-1.8-1.1-3.9-2.6-6.2-4.2-4.6-3.2-10-7.2-15.9-12.4-5.9-5.1-12.2-11.2-18.3-18.6-6.1-7.4-12.2-15.8-17.2-25.6-5.1-9.7-9.1-20.7-11.1-32.5-1-5.9-1.5-12-1.3-18.2.2-6.2 1-12.4 2.5-18.5 3-12.2 8.9-23.9 16.8-33.9 4-5 8.4-9.6 13.2-13.8 4.8-4.2 10-7.9 15.2-11.3 10.6-6.7 22-11.8 33.3-15.8 11.3-4 22.6-6.7 33.3-8.8 10.8-2 21.1-3.4 30.6-4.2 9.5-.8 18.3-1.2 26.1-1.3 1.9 0 3.8-.1 5.6-.1h5.3c3.4 0 6.5 0 9.3.2 2.8.1 5.3.2 7.5.2 2.2.1 4 .2 5.5.3 3 .2 4.6.2 4.6.2"/></g></svg>