<svg xmlns="http://www.w3.org/2000/svg" viewBox="0 0 512 512"><path fill="#f5c86e" d="M498.334 19l-198.19 286.103-20.658 29.822v100.14l75.31-73.602-38.462-71.796"/><path fill="#fae196" d="M209.505 313.515L64 269 502 10v393l-219-67"/><path fill="#f5b955" d="M279.486 435.065l-66.133-120.372L498.334 19 285.632 326.052z"/><path d="M506.955 1.314a9.999 9.999 0 0 0-10.045.078L313.656 109.756c-4.754 2.811-6.329 8.943-3.518 13.697 2.81 4.753 8.942 6.328 13.697 3.518l131.482-77.749-244.906 254.113-121.808-37.266 158.965-94c4.754-2.812 6.329-8.944 3.518-13.698-2.81-4.753-8.943-6.33-13.697-3.518L58.91 260.392a10 10 0 0 0 2.164 18.171l145.469 44.504L270.72 439.88c.067.121.136.223.207.314 1.071 1.786 2.676 3.245 4.678 4.087a9.99 9.99 0 0 0 10.869-2.065l73.794-72.12 138.806 42.466A10 10 0 0 0 512 403V10a10 10 0 0 0-5.045-8.686zM419.584 115.12L271.265 329.23a10.005 10.005 0 0 0-1.779 5.694v61.171l-43.823-79.765 193.921-201.21zM289.486 411.309v-62.867l48.99 14.988-48.99 47.879zm6.015-81.942L492 45.704v343.779l-196.499-60.116z"/><path d="M164.423 347.577c-3.906-3.905-10.236-3.905-14.143 0l-93.352 93.352c-3.905 3.905-3.905 10.237 0 14.143A9.975 9.975 0 0 0 64 458a9.968 9.968 0 0 0 7.071-2.929l93.352-93.352c3.905-3.904 3.905-10.236 0-14.142zM25.929 471.929l-23 23c-3.905 3.905-3.905 10.237 0 14.143C4.882 511.024 7.441 512 10 512s5.118-.977 7.071-2.929l23-23c3.905-3.905 3.905-10.237 0-14.143-3.906-3.903-10.236-3.903-14.142.001zM135.58 491.41c-2.641 0-5.21 1.07-7.07 2.93a10.058 10.058 0 0 0-2.93 7.07c0 2.63 1.069 5.21 2.93 7.07 1.86 1.86 4.44 2.93 7.07 2.93s5.21-1.07 7.069-2.93a10.077 10.077 0 0 0 2.931-7.07c0-2.64-1.07-5.21-2.931-7.07a10.072 10.072 0 0 0-7.069-2.93zM202.909 419.935l-49.446 49.445c-3.905 3.905-3.905 10.237 0 14.142 1.953 1.953 4.512 2.929 7.071 2.929s5.118-.977 7.071-2.929l49.446-49.445c3.905-3.905 3.905-10.237 0-14.142-3.903-3.905-10.233-3.905-14.142 0zM373.562 416.139l-49.58 49.58c-3.905 3.905-3.905 10.237 0 14.143 1.953 1.952 4.512 2.929 7.071 2.929s5.118-.977 7.071-2.929l49.58-49.58c3.905-3.905 3.905-10.237 0-14.143-3.906-3.904-10.236-3.904-14.142 0zM276.43 153.38c2.63 0 5.21-1.06 7.07-2.93a10.057 10.057 0 0 0 2.93-7.06c0-2.64-1.07-5.22-2.93-7.08s-4.44-2.93-7.07-2.93-5.21 1.07-7.07 2.93a10.086 10.086 0 0 0-2.93 7.08c0 2.63 1.07 5.2 2.93 7.06 1.86 1.87 4.44 2.93 7.07 2.93z"/></svg>