<svg xmlns="http://www.w3.org/2000/svg" xmlns:xlink="http://www.w3.org/1999/xlink" id="Layer_1" x="0" y="0" enable-background="new 0 0 272.957 491.421" version="1.1" viewBox="0 0 272.957 491.421" xml:space="preserve"><g><path fill="none" stroke="#000" stroke-miterlimit="10" d="M175.136,483.085c0,0,0.136-0.004,0.405-0.01 c0.268-0.009,0.67-0.007,1.193-0.051c0.524-0.033,1.175-0.088,1.931-0.227c0.753-0.138,1.631-0.328,2.525-0.779 c0.879-0.443,1.812-1.211,2.192-2.466c0.371-1.249,0.184-2.755-0.271-4.24c-0.936-3.009-2.736-6.113-4.994-9.501 c-4.517-6.691-10.415-13.803-17.194-21.85c-6.781-8.025-14.465-16.9-22.592-26.678c-8.122-9.776-16.696-20.453-25.126-32.038 c-8.419-11.579-16.707-24.083-23.951-37.405c-7.229-13.301-13.401-27.479-17.078-41.9c-1.83-7.201-3.046-14.441-3.439-21.553 c-0.204-3.555-0.221-7.079-0.012-10.547l0.078-1.299l0.132-1.264l0.252-2.517c0.087-0.837,0.256-1.674,0.374-2.508 c0.147-0.834,0.215-1.668,0.415-2.498c1.297-6.646,3.36-13.183,6.184-19.537c2.844-6.35,6.352-12.518,10.358-18.448 c8.066-11.857,18.076-22.712,28.713-32.499c10.66-9.793,21.984-18.534,33.181-26.33c11.207-7.796,22.301-14.652,32.76-20.666 c20.94-12.021,39.309-20.684,52.146-26.373c6.427-2.845,11.488-4.928,14.883-6.29c1.673-0.656,2.955-1.159,3.819-1.497 c0.821-0.309,1.245-0.469,1.245-0.469"/><path fill="none" stroke="#000" stroke-miterlimit="10" d="M172.242,484.627c0,0,0.135-0.005,0.4-0.016 c0.265-0.013,0.662-0.018,1.181-0.068c0.52-0.041,1.165-0.104,1.918-0.251c0.75-0.146,1.626-0.345,2.522-0.797 c0.881-0.444,1.823-1.205,2.21-2.425c0.378-1.213,0.189-2.66-0.272-4.077c-0.944-2.866-2.778-5.812-5.017-8.977 c-4.508-6.288-10.561-13.156-17.547-20.934c-6.993-7.765-14.958-16.389-23.431-25.937c-8.469-9.547-17.457-20.016-26.385-31.465 c-8.918-11.447-17.791-23.888-25.731-37.352c-7.919-13.449-14.916-27.978-19.452-43.268c-2.255-7.637-3.899-15.449-4.661-23.293 c-0.388-3.921-0.574-7.848-0.509-11.755c-0.006-1.964,0.189-3.873,0.268-5.806c0.059-0.963,0.201-1.924,0.295-2.885 c0.122-0.96,0.169-1.923,0.349-2.878c1.135-7.656,3.166-15.194,6.027-22.452c2.88-7.255,6.49-14.244,10.612-20.911 c8.302-13.325,18.588-25.321,29.449-36.09c10.888-10.771,22.402-20.33,33.761-28.857c11.37-8.525,22.601-16.021,33.186-22.61 c21.191-13.169,39.769-22.727,52.836-29.075c6.54-3.173,11.721-5.525,15.235-7.086c3.522-1.56,5.338-2.31,5.338-2.31"/><path fill="none" stroke="#000" stroke-miterlimit="10" d="M182.439,479.194c0,0,0.139,0.002,0.413,0.006 c0.273,0.001,0.684,0.021,1.215-0.003c0.532-0.013,1.191-0.044,1.95-0.159c0.757-0.115,1.634-0.28,2.515-0.724 c0.867-0.437,1.77-1.218,2.125-2.558c0.348-1.334,0.156-2.983-0.292-4.634c-0.439-1.669-1.146-3.388-1.978-5.175 c-0.843-1.787-1.833-3.614-3.011-5.595c-2.291-3.859-4.817-7.651-7.567-11.619c-2.748-3.96-5.719-8.073-8.871-12.39 c-6.301-8.626-13.34-18.073-20.669-28.373c-7.322-10.294-14.939-21.439-22.216-33.316c-7.266-11.865-14.196-24.493-19.825-37.455 c-5.627-12.928-9.886-26.259-11.574-38.616c-0.844-6.167-1.071-12.059-0.613-17.443c0.221-2.695,0.591-5.269,1.128-7.706 l0.198-0.911l0.246-0.831l0.458-1.634c0.151-0.542,0.379-1.087,0.552-1.624c0.201-0.54,0.318-1.068,0.565-1.608 c1.662-4.279,3.783-8.472,6.506-12.709c2.745-4.234,6.003-8.485,9.723-12.7c7.488-8.437,16.834-16.641,26.931-24.151 c10.11-7.524,20.977-14.376,31.783-20.484c10.815-6.112,21.58-11.493,31.737-16.181c20.338-9.377,38.21-15.982,50.505-20.151 c6.161-2.09,10.94-3.554,14.055-4.458c1.548-0.444,2.706-0.763,3.412-0.936c0.343-0.082,0.603-0.145,0.778-0.187 c0.157-0.033,0.236-0.05,0.236-0.05"/><path fill="none" stroke="#000" stroke-miterlimit="10" d="M179.545,480.736c0,0,0.136,0.001,0.405,0.002 c0.268-0.001,0.67,0.014,1.191-0.015c0.523-0.018,1.17-0.054,1.919-0.174c0.746-0.119,1.613-0.29,2.488-0.731 c0.861-0.434,1.763-1.203,2.116-2.501c0.345-1.292,0.141-2.875-0.324-4.448c-0.455-1.592-1.183-3.221-2.033-4.911 c-0.861-1.689-1.87-3.413-3.048-5.263c-4.611-7.197-10.376-14.562-16.964-22.891c-6.583-8.293-13.986-17.409-21.759-27.4 c-7.767-9.987-15.912-20.846-23.821-32.527c-7.899-11.672-15.57-24.188-22.08-37.292c-6.501-13.077-11.802-26.806-14.58-40.206 c-1.384-6.69-2.155-13.272-2.171-19.551c-0.015-3.14,0.138-6.208,0.488-9.183l0.129-1.113l0.181-1.057l0.339-2.096 c0.114-0.696,0.307-1.394,0.447-2.087c0.169-0.694,0.257-1.382,0.475-2.075c1.442-5.521,3.504-10.952,6.255-16.312 c2.772-5.357,6.138-10.632,9.986-15.766c7.75-10.272,17.412-19.916,27.766-28.67c10.372-8.764,21.457-16.657,32.451-23.699 c11.003-7.044,21.927-13.245,32.23-18.672c20.63-10.851,38.75-18.61,51.325-23.63c6.298-2.513,11.225-4.323,14.489-5.483 c1.589-0.547,2.808-0.967,3.629-1.249c0.75-0.241,1.138-0.366,1.138-0.366"/><path fill="none" stroke="#000" stroke-miterlimit="10" d="M166.101,487.899c0,0,0.479,0.005,1.398-0.056 c0.459-0.03,1.03-0.08,1.695-0.203c0.662-0.123,1.436-0.293,2.225-0.691c0.774-0.39,1.602-1.068,1.903-2.147 c0.292-1.072,0.044-2.34-0.467-3.565c-1.03-2.466-2.951-5.007-5.157-7.591c-4.509-5.242-10.984-11.459-18.529-18.516 c-7.565-7.069-16.282-15.019-25.68-23.944c-9.396-8.929-19.487-18.83-29.742-29.906c-10.245-11.082-20.677-23.336-30.47-37.158 c-9.758-13.822-18.948-29.259-25.771-46.835c-6.768-17.549-11.111-37.345-9.752-58.303c0.695-10.323,2.633-20.51,5.583-30.166 c2.966-9.651,6.835-18.818,11.258-27.439c8.912-17.219,19.914-32.25,31.357-45.634c11.48-13.377,23.488-25.115,35.27-35.592 c11.793-10.47,23.382-19.674,34.295-27.801c21.846-16.235,40.971-28.185,54.644-36.299c6.838-4.051,12.337-7.121,16.167-9.214 c1.952-1.048,3.448-1.851,4.456-2.392c1.06-0.553,1.607-0.838,1.607-0.838"/><path fill="none" stroke="#000" stroke-miterlimit="10" d="M168.341,486.706c0,0,0.51-0.002,1.491-0.08 c0.49-0.039,1.1-0.099,1.811-0.238c0.708-0.138,1.537-0.328,2.386-0.756c0.833-0.42,1.727-1.141,2.077-2.282 c0.34-1.135,0.122-2.477-0.366-3.779c-0.992-2.626-2.884-5.322-5.109-8.13c-4.518-5.644-10.838-12.106-18.176-19.433 c-7.353-7.33-15.789-15.53-24.841-24.686c-9.049-9.158-18.726-19.268-28.483-30.479c-9.747-11.214-19.593-23.532-28.69-37.212 c-9.067-13.674-17.433-28.761-23.397-45.467c-5.925-16.664-9.377-35.075-7.697-53.873c0.857-9.314,2.827-18.5,5.739-27.25 c2.93-8.747,6.698-17.092,11.004-24.976c8.675-15.752,19.401-29.641,30.62-42.043c11.252-12.398,23.07-23.319,34.69-33.065 c11.63-9.741,23.082-18.306,33.869-25.857c21.595-15.087,40.511-26.143,53.954-33.596c6.725-3.723,12.103-6.524,15.814-8.418 c3.708-1.888,5.79-2.886,5.79-2.886"/><path fill="none" stroke="#000" stroke-miterlimit="10" d="M160.448,490.912c0,0,0.403,0.022,1.172,0 c0.755-0.05,1.937-0.044,3.252-0.659c0.632-0.319,1.302-0.891,1.488-1.817c0.178-0.92-0.138-2.007-0.694-3.045 c-1.111-2.078-3.081-4.242-5.227-6.285c-2.207-2.113-5.052-4.628-8.311-7.373c-3.264-2.751-6.954-5.753-10.974-8.985 c-8.045-6.468-17.407-13.846-27.603-22.25c-10.196-8.411-21.243-17.845-32.652-28.628c-11.399-10.796-23.188-22.927-34.595-37.108 c-5.699-7.094-11.29-14.718-16.587-23.02c-5.298-8.294-10.299-17.283-14.688-27.099c-4.373-9.816-8.147-20.479-10.747-31.985 c-1.305-5.745-2.329-11.686-2.977-17.784l-0.236-2.29l-0.166-2.37l-0.288-4.768c-0.08-1.592-0.069-3.172-0.094-4.765 c0.002-1.585-0.059-3.199,0.02-4.771c0.329-12.69,2.21-25.222,5.261-36.993c3.065-11.767,7.184-22.85,11.893-33.187 c9.489-20.64,21.155-38.321,33.138-53.982c12.029-15.645,24.495-29.273,36.668-41.438c12.184-12.154,24.103-22.833,35.319-32.286 c22.448-18.879,42.071-32.888,56.286-42.52c7.105-4.807,12.885-8.495,16.995-11.047c2.067-1.278,3.69-2.262,4.864-2.953 c1.212-0.706,1.838-1.07,1.838-1.07"/><path fill="none" stroke="#000" stroke-miterlimit="10" d="M162.688,489.718c0,0,0.438,0.013,1.278-0.031 c0.825-0.072,2.114-0.096,3.567-0.777c0.7-0.353,1.446-0.974,1.691-1.969c0.237-0.989-0.037-2.158-0.56-3.282 c-1.049-2.256-2.967-4.599-5.108-6.897c-4.415-4.735-11.023-10.7-18.759-17.476c-7.763-6.802-16.761-14.51-26.513-23.222 c-9.751-8.718-20.27-18.437-31.047-29.418c-10.766-10.99-21.813-23.232-32.34-37.271c-5.259-7.021-10.375-14.506-15.166-22.559 c-4.794-8.046-9.256-16.676-13.104-25.969c-3.833-9.293-7.062-19.266-9.189-29.877c-1.068-5.3-1.875-10.748-2.336-16.308 l-0.168-2.087l-0.101-2.144l-0.169-4.307c-0.043-1.437,0.003-2.865,0.01-4.302c0.035-1.431,0.003-2.884,0.109-4.304 c0.55-11.448,2.488-22.742,5.512-33.39c3.038-10.644,7.05-20.704,11.629-30.121c9.228-18.805,20.577-35.046,32.303-49.463 c11.768-14.406,24.015-26.991,36-38.223c11.997-11.223,23.757-21.081,34.826-29.795c22.156-17.405,41.531-30.26,55.466-39.041 c6.967-4.384,12.6-7.726,16.561-10.021c2.035-1.156,3.595-2.043,4.646-2.64c1.131-0.621,1.714-0.941,1.714-0.941"/><path fill="none" stroke="#000" stroke-miterlimit="10" d="M170.061,485.789c0,0,0.535-0.008,1.565-0.1 c0.515-0.046,1.155-0.115,1.903-0.266c0.745-0.151,1.617-0.356,2.513-0.807c0.88-0.444,1.827-1.198,2.216-2.39 c0.38-1.184,0.187-2.585-0.282-3.948c-0.957-2.753-2.822-5.574-5.054-8.561c-4.514-5.967-10.701-12.632-17.863-20.185 c-7.173-7.547-15.374-15.96-24.136-25.311c-8.759-9.352-18.091-19.641-27.433-30.971c-9.332-11.33-18.691-23.709-27.209-37.28 c-8.493-13.56-16.173-28.367-21.423-44.363c-5.224-15.942-7.931-33.219-5.976-50.238c0.996-8.483,2.996-16.844,5.882-24.847 c2.905-7.999,6.593-15.666,10.806-22.941c8.488-14.537,18.993-27.478,30.032-39.063c11.069-11.584,22.735-21.823,34.224-30.959 c11.499-9.133,22.841-17.162,33.526-24.232c21.392-14.127,40.139-24.434,53.394-31.335c6.633-3.448,11.912-6.024,15.524-7.752 c3.615-1.724,5.563-2.598,5.563-2.598"/></g></svg>