<?xml version="1.0" encoding="utf-8"?>
<!-- Generator: Adobe Illustrator 18.0.0, SVG Export Plug-In . SVG Version: 6.00 Build 0)  -->
<!DOCTYPE svg PUBLIC "-//W3C//DTD SVG 1.1//EN" "http://www.w3.org/Graphics/SVG/1.1/DTD/svg11.dtd">
<svg version="1.1" id="Layer_1" xmlns="http://www.w3.org/2000/svg" xmlns:xlink="http://www.w3.org/1999/xlink" x="0px" y="0px"
	 viewBox="0 0 140.1 131.8" enable-background="new 0 0 140.1 131.8" xml:space="preserve">
<path fill="#73C5C1" d="M126.9,72c-8.3,0-27.2,6.8-44,13.2c-9.6,3.6-18.9,8-27.8,13c-2.9,1.6-19,11.2-6.1,8.6
	c17.6-3.6,52.5-8.4,58.3-12.1h0c0.7-0.5-19.1,22.1-37.1,22.9c-13.6,0.6-29.3-2.5-38.9-12.9c-19.8-21.3,0-59,16-76.6
	C57,17.4,73.1,4.8,87.9,13.6c6.8,4,7.3,7.9,15.9,5.3c3-0.9,19.8-4.5,15.9-10.1c-9.3-13.6-33.6-8.4-46-4
	c-15.7,5.5-30.3,13.6-42.1,25.3C13.8,47.8-8.8,84.7,3.5,110.5c15,31.3,59.9,22.4,84.1,9.2c8.1-4.4,23.7-17.8,36-28.5
	c8-6.9,15.1-12.6,16-14C142,73.7,135.2,72,126.9,72z"/>
</svg>
