<?xml version="1.0" encoding="utf-8"?>
<!-- Generator: Adobe Illustrator 16.0.2, SVG Export Plug-In . SVG Version: 6.00 Build 0)  -->
<!DOCTYPE svg PUBLIC "-//W3C//DTD SVG 1.1//EN" "http://www.w3.org/Graphics/SVG/1.1/DTD/svg11.dtd">
<svg version="1.1" id="Layer_1" xmlns="http://www.w3.org/2000/svg" xmlns:xlink="http://www.w3.org/1999/xlink" x="0px" y="0px"
	 width="747px" height="229px" viewBox="0 0 747 229" enable-background="new 0 0 747 229" xml:space="preserve">
<g opacity="0.7">
	<path fill-rule="evenodd" clip-rule="evenodd" fill="#FFFFFF" d="M137.402,126.257c-5.854,3.744-40.681,8.562-58.311,12.112
		c-12.865,2.591,3.217-6.986,6.133-8.625c8.934-5.021,18.224-9.419,27.813-13.042c16.839-6.361,36.395-6.494,52.391-14.304
		c7.544-3.684,14.187-8.879,21.432-13.076c7.685-4.451,3.898-11.053,9.903-16.542c15.061-13.766,45.666-18.711,87.467,23.09
		c13.525,13.525-16.68,23.309-28.284,28.799c-11.158,5.28,20.179,26.988,28.674,24.987c-6.261-5.375-7.381-4.478-1.429-9.953
		c4.852-4.463,4.829-13.422,6.02-19.371c2.56-12.788,3.524-36.992,14.751-45.429c5.015-3.768,12.283-8.68,18.433-10.224
		c5.245-1.316,18.148,54.752,24.843,53.153c8.876-2.119,3.547-14.436,2.551-21.311c-1.36-9.39-2.9-18.757-4.835-28.047
		c-1.481-7.112-1.92-16.693-9.099-20.594c-3.241-1.763-10.825-5.258-7.905-10.17c3.106-5.225,10.778-10.702,17.037-8.986
		c4.774,1.309,15.583,2.945,19.468,5.59c7.078,4.819,15.402,6.626,23.867,6.524c6.094-0.073,15.725-3.728,21.303-0.823
		c-5.443,4.872-14.294,6.313-21.175,8.607c-4.019,1.34-17.679,2.936-18.567,8.324c-1.229,7.459,3.153,18.716,4.617,26.12
		c1.413,7.146,2.411,13.604,11.195,11.713c6.042-1.302,33.256-15.249,34.09-4.793c0.689,8.637,11.971,44.692,11.901,53.189
		c-0.054,6.634-14.389,12.376-19.255,15.104c-7.239,4.059-9.006-11.073-10.031-15.069c-2.246-8.76-4.273-17.586-6.269-26.405
		c-1.877-8.294-2.1-15.982-12.022-10.157c-7.203,4.229,16.365,58.813,19.462,67.843c3.023,8.814,8.283,16.194-0.08,22.946
		c-3.042,2.456-13.396,12.778-17.375,7.483c-4.796-6.384-6.533-17.643-9.144-25.159c-6.456-18.584-14.526-37.298-19.443-56.34
		c-1.696-6.566-10.064-2.417-10.6,2.796c-0.765,7.442,6.133,14.053,6.26,21.253c0.101,5.727-12.083,11.575-16.202,14.239
		c-8.449,5.468-10.812-10.108-12.552-15.502c-2.432-7.534-3.625-10.504-11.8-7.405c-5.033,1.907-5.007,4.968-4.767,9.938
		c0.294,6.091,3.939,16.494-2.361,20.517c-8.001,5.111-15.64,13.355-25.655,8.246c-15.886-8.107-60.764-39.894-65.826-38.449
		c-3.842,1.098-6.989,13.042-11.551,16.249c-3.258,2.291-10.849,8.584-14.835,8.508c-6.053-0.117,6.902-69.644-0.663-66.826
		s-22.727,16.723-31.261,27.132c-9.751,11.894-24.549,19.92-37.876,27.143c-24.269,13.151-69.174,22.098-84.126-9.241
		c-12.32-25.82,10.26-62.691,28.132-80.453c11.794-11.721,26.419-19.87,42.077-25.343c12.379-4.328,36.684-9.604,45.99,4.04
		c3.845,5.638-12.869,9.186-15.905,10.092c-8.581,2.561-9.138-1.261-15.915-5.289c-14.822-8.809-30.946,3.842-40.699,14.605
		c-15.951,17.604-35.734,55.349-15.98,76.65c9.629,10.383,25.321,13.482,38.919,12.863
		C118.331,148.365,138.121,125.797,137.402,126.257z M231.5,84.375c-16,0-11.324,17.585-3.639,25.27s29.253,0.01,33.066-3.802
		S244.25,84.375,231.5,84.375z M312.778,111.411c-3.29,0.433-6.332,15.576-0.854,16.149
		C321.046,128.52,314.02,115.139,312.778,111.411C312.125,111.497,314.102,115.385,312.778,111.411z"/>
	<path fill-rule="evenodd" clip-rule="evenodd" fill="#FFFFFF" d="M586.443,61.542c-3.658,3.047-17.015,10.743-16.215,16.274
		c0.501,3.464,4.521,6.857,6.063,9.946c2.267,4.538,3.38,9.547,3.358,14.614c-0.063,14.809-7.75,29.071-19.545,37.809
		c-11.093,8.218-29.085,19.553-43.457,15.976c-15.241-3.793-17.782-21.208-23.067-33.408c-2.399-5.539-32.097,16.588-38.122,18.353
		c-25.096,7.353-27.718-61.229-1.388-68.869c6.053-1.756,35.809-12.256,28.981,5.74c-2.056,5.42-11.52,7.796-16.473,9.024
		c-8.188,2.03-7.666,14.312-7.386,20.798c0.169,3.925,1.28,18.371,7.771,17.757c5.891-0.556,31.28-27.925,30.269-32.083
		c-1.737-7.156,9.549-9.343,14.276-11.111c15.591-5.831,34.405-4.561,47.652-14.262c14.81-10.846,28.798-23.6,45.61-31.342
		c28.98-13.345,69.721-16.013,94.817,6.429c17.058,15.253,19.122,31.994,21.696,53.561c1.545,12.938-7.841,13.088-18.557,15.931
		c-10.109,2.681-9.858-8.54-13.623-14.852c-4.521-7.581-11.84-12.757-19.52-16.787c-6.178-3.242-17.393-9.825-24.536-8.896
		c-7.896,1.027-15.635,13.269-18.783,19.711c-4.66,9.537-4.237,20.18,0.144,29.734c8.247,17.986,25.551,31.597,30.146,51.376
		c5.268,22.677-21.66,32.445-39.715,34.507c-14.268,1.629-44.409-13.993-46.368-29.677c-2.194-17.562,18.9-26.678,33.325-26.05
		c-2.391,8.552-8.927,17.88-5.206,26.923c3.152,7.661,17.021,18.098,25.551,17.73c16.046-0.691,3.378-24.748-0.208-29.998
		c-7.694-11.264-17.192-21.568-22.953-34.026c-9.898-21.407-0.298-44.484,17.818-58.598c10.354-8.067,24.982-12.642,34.864-12.443
		s22.044,6.212,34,6.92c-2.344-13.597-27.647-25.753-53.333-24.587C613.302,44.621,591.454,57.368,586.443,61.542z M515.066,108.163
		c1.403,12,3.41,26.678,14.634,33.756c13.256,8.359,23.112-12.245,24.521-22.516c0.966-7.047-0.833-31.648-12.923-26.914
		C531,96.524,516.112,95.423,515.066,108.163C515.412,111.119,515.76,99.717,515.066,108.163z"/>
	<path fill-rule="evenodd" clip-rule="evenodd" fill="#FEFEFE" d="M417.174,68.704c1.107,12.753-9.287,13.193-18.707,12.308
		C397.06,80.879,416.505,61.069,417.174,68.704z"/>
</g>
</svg>
